<svg id="Layer_1" data-name="Layer 1" xmlns="http://www.w3.org/2000/svg" viewBox="0 0 571.49 267.73"><defs><style>.cls-1{fill:#164193;}.cls-2{fill:#ffe000;}.cls-3{fill:#fff;}</style></defs><title>wec_logo</title><path class="cls-1" d="M170,212.31h0.26a11.18,11.18,0,0,0,7.83-3.13,11,11,0,0,0,3.36-7.8A11.09,11.09,0,0,0,170.8,190.2a11.22,11.22,0,0,0-8.13,3.05A11.06,11.06,0,0,0,170,212.31Z" transform="translate(-129.8 -170.48)"/><path class="cls-1" d="M199.8,212.31h0.07a11.1,11.1,0,0,0,11-11.08,11,11,0,0,0-3.29-7.84A11.09,11.09,0,1,0,199.8,212.31Z" transform="translate(-129.8 -170.48)"/><path class="cls-1" d="M229.19,212.31h0a11,11,0,0,0,11.14-11,10.9,10.9,0,0,0-3.19-7.87,11.13,11.13,0,0,0-8-3.3h-0.07A11.06,11.06,0,0,0,229.19,212.31Z" transform="translate(-129.8 -170.48)"/><path class="cls-1" d="M209.64,347.1H157.11c-9.48,0-14.91-5.4-14.91-14.81V308.16c0-24.49,0-49.81-.07-74.72a2.28,2.28,0,0,1,.19-1.33,2.69,2.69,0,0,1,1.43-.17h0q42.79,0.08,85.57,0h38.82q42.86,0,85.73,0h0a2.66,2.66,0,0,1,1.43.18,2.28,2.28,0,0,1,.19,1.33c0,8.88,0,17.81-.05,26.74a87.41,87.41,0,0,1,12.44,16.54V170.48H129.8v189h25.08l0.29,0c1.18,0,2.37,0,3.55,0h56A86.54,86.54,0,0,1,209.64,347.1Zm-67.51-129c0.12-4.5.1-9.06,0.08-13.48,0-2.41,0-4.82,0-7.23,0-8.94,5.63-14.49,14.58-14.49H341.15c8.53,0,14.28,5.74,14.33,14.28,0,2.59,0,5.17,0,7.76,0,4.39,0,8.94.07,13.41a2,2,0,0,1-.14,1.14,2.28,2.28,0,0,1-1.26.16h0q-43.54-.07-87.08,0H229q-42.61,0-85.22.05h0a2.48,2.48,0,0,1-1.44-.2A2.22,2.22,0,0,1,142.13,218.11Z" transform="translate(-129.8 -170.48)"/><path class="cls-1" d="M473.3,194.67c7.52,0,11.74,5,11.74,12a18.51,18.51,0,0,1-.26,2.88H466.4c0.41,4.53,3.91,7.05,8.5,7.05a14,14,0,0,0,7.11-2.06l2,3.71a18.92,18.92,0,0,1-9.89,2.93c-7.67,0-13.8-4.89-13.8-13.23A12.89,12.89,0,0,1,473.3,194.67Zm6.28,10.86c0-3.91-2.11-6.28-6.13-6.28a7,7,0,0,0-7.11,6.28h13.23Z" transform="translate(-129.8 -170.48)"/><path class="cls-1" d="M492.25,184.22h6v9.37L498,198a11.91,11.91,0,0,1,7.83-3.35c6.54,0,10.35,5,10.35,12.82,0,8.7-5.41,13.7-11.22,13.7a11.14,11.14,0,0,1-7.36-3.4h-0.15l-0.51,2.78h-4.69V184.22Zm11.53,32.08c3.55,0,6.28-3,6.28-8.7,0-5-1.75-8-5.87-8-1.9,0-3.91.93-6,3V214A8.41,8.41,0,0,0,503.78,216.3Z" transform="translate(-129.8 -170.48)"/><path class="cls-1" d="M524.9,213.52a16.47,16.47,0,0,0,9.78,3.19c4,0,5.77-1.29,5.77-3s-2.37-2.83-7.47-4.17c-4.84-1.29-9.32-3.45-9.32-7.26,0-4.43,4-7.57,11.17-7.57a19.72,19.72,0,0,1,10.5,3.35l-2.73,3.66a14,14,0,0,0-7.72-2.52c-3.91,0-5.3,1.18-5.3,2.78,0,1.8,3,2.78,7.11,3.81,5.87,1.54,9.68,3.45,9.68,7.62,0,4.33-4.17,7.83-11.84,7.83a22.62,22.62,0,0,1-12.41-3.91Z" transform="translate(-129.8 -170.48)"/><path class="cls-1" d="M554.14,195.29H571v25.28h-5.92V200h-11v-4.69Zm9.27-8.39a4.23,4.23,0,0,1,8.44,0A4.23,4.23,0,0,1,563.41,186.9Z" transform="translate(-129.8 -170.48)"/><path class="cls-1" d="M590.49,200h-6.74v-4.43l7-.26,0.77-6.9h4.89v6.9h11.53V200H596.41v10.4c0,4.17,1.55,6.08,5.82,6.08a15.28,15.28,0,0,0,5.56-1l1.13,4.33a25.5,25.5,0,0,1-8.14,1.44c-7.67,0-10.3-4.33-10.3-10.81V200Z" transform="translate(-129.8 -170.48)"/><path class="cls-1" d="M627.77,194.67c7.52,0,11.74,5,11.74,12a18.51,18.51,0,0,1-.26,2.88H620.87c0.41,4.53,3.91,7.05,8.5,7.05a14,14,0,0,0,7.11-2.06l2,3.71a18.92,18.92,0,0,1-9.89,2.93c-7.67,0-13.8-4.89-13.8-13.23A12.89,12.89,0,0,1,627.77,194.67Zm6.28,10.86c0-3.91-2.11-6.28-6.13-6.28a7,7,0,0,0-7.11,6.28h13.23Z" transform="translate(-129.8 -170.48)"/><path class="cls-1" d="M459.25,257.08h6l4.89,13.13c0.93,2.52,1.7,5,2.52,7.62h0.21c0.82-2.57,1.6-5.1,2.52-7.62l4.89-13.13h5.66l-9.83,25.28h-6.74Z" transform="translate(-129.8 -170.48)"/><path class="cls-1" d="M492.35,257.08h16.89v25.28h-5.92v-20.6h-11v-4.69Zm9.27-8.39a4.23,4.23,0,0,1,8.44,0A4.23,4.23,0,0,1,501.62,248.69Z" transform="translate(-129.8 -170.48)"/><path class="cls-1" d="M532.82,256.46a9.84,9.84,0,0,1,7.05,3l-0.26-4.27V246h6v36.35H540.7l-0.46-2.93h-0.15a11.4,11.4,0,0,1-7.62,3.55c-6.49,0-10.81-4.89-10.81-13.23S527.06,256.46,532.82,256.46Zm1.08,21.63c2.11,0,4-1,5.72-3V263.67a7.54,7.54,0,0,0-5.41-2.32c-3.5,0-6.44,3-6.44,8.34C527.78,275.15,530,278.09,533.91,278.09Z" transform="translate(-129.8 -170.48)"/><path class="cls-1" d="M566,256.46c7.52,0,11.74,5,11.74,12a18.51,18.51,0,0,1-.26,2.88H559.08c0.41,4.53,3.91,7.05,8.5,7.05a14,14,0,0,0,7.11-2.06l2,3.71a18.92,18.92,0,0,1-9.89,2.93c-7.67,0-13.8-4.89-13.8-13.23A12.89,12.89,0,0,1,566,256.46Zm6.28,10.86c0-3.91-2.11-6.28-6.13-6.28a7,7,0,0,0-7.11,6.28h13.23Z" transform="translate(-129.8 -170.48)"/><path class="cls-1" d="M584.93,257.08h4.89l0.46,3.81h0.21c2.37-2.42,5.25-4.43,9.11-4.43,5.82,0,8.5,3.71,8.5,10.25v15.65h-6V267.48c0-4.07-1.29-5.92-4.74-5.92-2.47,0-4.17,1.18-6.49,3.55v17.25h-6V257.08Z" transform="translate(-129.8 -170.48)"/><path class="cls-1" d="M629.73,256.46A13.42,13.42,0,0,1,639.1,260l-2.83,3.71A9.6,9.6,0,0,0,630,261.3c-5,0-8.55,3.35-8.55,8.44s3.4,8.39,8.39,8.39a11.84,11.84,0,0,0,7.21-2.78l2.47,3.81A15.72,15.72,0,0,1,629.32,283c-7.93,0-14-4.84-14-13.23S622,256.46,629.73,256.46Z" transform="translate(-129.8 -170.48)"/><path class="cls-1" d="M658.67,256.46c7.52,0,11.74,5,11.74,12a18.51,18.51,0,0,1-.26,2.88H651.77c0.41,4.53,3.91,7.05,8.5,7.05a14,14,0,0,0,7.11-2.06l2,3.71a18.92,18.92,0,0,1-9.89,2.93c-7.67,0-13.8-4.89-13.8-13.23A12.89,12.89,0,0,1,658.67,256.46Zm6.28,10.86c0-3.91-2.11-6.28-6.13-6.28a7,7,0,0,0-7.11,6.28h13.23Z" transform="translate(-129.8 -170.48)"/><path class="cls-1" d="M472.58,318.25c6.64,0,12.72,4.84,12.72,13.28s-6.08,13.23-12.72,13.23-12.72-4.84-12.72-13.23S465.94,318.25,472.58,318.25Zm0,21.68c4.12,0,6.59-3.35,6.59-8.39s-2.47-8.44-6.59-8.44-6.59,3.35-6.59,8.44S468.46,339.93,472.58,339.93Z" transform="translate(-129.8 -170.48)"/><path class="cls-1" d="M491.68,307.8h13.9v27.44c0,3.4,2,4.69,4.53,4.69a11.66,11.66,0,0,0,4.32-1l1.39,4.38a19.68,19.68,0,0,1-7.16,1.44c-5.92,0-9-3.6-9-9.83V312.48h-8V307.8Z" transform="translate(-129.8 -170.48)"/><path class="cls-1" d="M522.58,307.8h13.9v27.44c0,3.4,2,4.69,4.53,4.69a11.66,11.66,0,0,0,4.32-1l1.39,4.38a19.68,19.68,0,0,1-7.16,1.44c-5.92,0-9-3.6-9-9.83V312.48h-8V307.8Z" transform="translate(-129.8 -170.48)"/><path class="cls-1" d="M566,318.25c7.52,0,11.74,5,11.74,12a18.51,18.51,0,0,1-.26,2.88H559.08c0.41,4.53,3.91,7.05,8.5,7.05a14,14,0,0,0,7.11-2.06l2,3.71a18.92,18.92,0,0,1-9.89,2.93c-7.67,0-13.8-4.89-13.8-13.23A12.89,12.89,0,0,1,566,318.25Zm6.28,10.86c0-3.91-2.11-6.28-6.13-6.28a7,7,0,0,0-7.11,6.28h13.23Z" transform="translate(-129.8 -170.48)"/><path class="cls-1" d="M598.83,318.25a13.42,13.42,0,0,1,9.37,3.55l-2.83,3.71a9.6,9.6,0,0,0-6.23-2.42c-5,0-8.55,3.35-8.55,8.44s3.4,8.39,8.39,8.39a11.84,11.84,0,0,0,7.21-2.78l2.47,3.81a15.72,15.72,0,0,1-10.25,3.81c-7.93,0-14-4.84-14-13.23S591.11,318.25,598.83,318.25Z" transform="translate(-129.8 -170.48)"/><path class="cls-1" d="M621.39,323.55h-6.74v-4.43l7-.26,0.77-6.9h4.89v6.9h11.53v4.69H627.31V334c0,4.17,1.55,6.08,5.82,6.08a15.28,15.28,0,0,0,5.56-1l1.13,4.33a25.49,25.49,0,0,1-8.14,1.44c-7.67,0-10.3-4.33-10.3-10.81v-10.4Z" transform="translate(-129.8 -170.48)"/><path class="cls-1" d="M657.94,318.25c6.64,0,12.72,4.84,12.72,13.28s-6.08,13.23-12.72,13.23-12.72-4.84-12.72-13.23S651.3,318.25,657.94,318.25Zm0,21.68c4.12,0,6.59-3.35,6.59-8.39s-2.47-8.44-6.59-8.44-6.59,3.35-6.59,8.44S653.83,339.93,657.94,339.93Z" transform="translate(-129.8 -170.48)"/><path class="cls-1" d="M680.09,318.87H685l0.52,5.72h0.15c2.57-4.07,6.38-6.33,10.76-6.33a10.25,10.25,0,0,1,4.89,1l-1.24,5a13.18,13.18,0,0,0-4.58-.77c-3.45,0-6.85,1.8-9.42,6.69v14h-6V318.87Z" transform="translate(-129.8 -170.48)"/><g id="Yv5gbX.tif"><path class="cls-1" d="M293.41,247.33l3.78,0.24a69.77,69.77,0,0,1,15.38,2.73,72.9,72.9,0,0,1,51.25,57.15A73,73,0,0,1,356.65,354a70.29,70.29,0,0,1-7.08,11,0.63,0.63,0,0,0,0,1c1.9,1.85,3.77,3.74,5.64,5.63a0.63,0.63,0,0,0,.88.15,13.44,13.44,0,0,1,15.58,2.59q11.33,11.24,22.64,22.5,5.67,5.63,11.36,11.26a13.58,13.58,0,0,1,4.13,7.93,13,13,0,0,1-3.33,11.1c-2.4,2.61-4.91,5.15-7.53,7.54a13.53,13.53,0,0,1-18.81-.58Q366,419.84,351.81,405.55c-1.9-1.91-3.81-3.81-5.69-5.74a13.7,13.7,0,0,1-4-10.18,12.1,12.1,0,0,1,1.24-5.19,0.82,0.82,0,0,0-.22-1.13c-1.86-1.81-3.69-3.64-5.5-5.51a0.64,0.64,0,0,0-1.06,0,73,73,0,0,1-18.32,10.43,71.08,71.08,0,0,1-16.76,4.33,72.88,72.88,0,0,1-81.17-59.61,69.24,69.24,0,0,1-1-10.34c0-.32-0.06-0.65-0.09-1q0-1.35,0-2.7c0-.34.09-0.69,0.09-1a69,69,0,0,1,1.06-10.34,72.75,72.75,0,0,1,66.7-60c1.24-.08,2.49,0,3.72-0.22h2.7Zm58.09,73A59.43,59.43,0,1,0,292,379.68,59.46,59.46,0,0,0,351.5,320.32Z" transform="translate(-129.8 -170.48)"/></g><path class="cls-2" d="M329.66,318.49a12.49,12.49,0,0,1-3.65,1.42,9.4,9.4,0,0,1-4.92-.06c-3.39-1.09-5-3.67-5.56-7a16.87,16.87,0,0,1,.78-8.41c0.15-.44.06-0.54-0.37-0.58a18.72,18.72,0,0,1-9.86-3.78,19.17,19.17,0,0,1-7.68-13.89c-0.08-.75.39-1.74-0.28-2.19a5.3,5.3,0,0,0-2.37-.49,45.2,45.2,0,0,0-8.6-.07,39.44,39.44,0,0,0-10.7,2.55,39.7,39.7,0,0,0-20.83,19,39.89,39.89,0,0,0-3.83,12.26,39.15,39.15,0,0,0,2.13,19.49,38.27,38.27,0,0,0,6,10.61,39.39,39.39,0,0,0,16.94,12.45,38.46,38.46,0,0,0,12.7,2.53,39.72,39.72,0,0,0,14.37-2.11,38.87,38.87,0,0,0,12.36-7,39.64,39.64,0,0,0,10.7-14s0.41-.92.92-2.22a1.4,1.4,0,0,0,.15-0.38l0.09-.25a35.61,35.61,0,0,0,1.18-3.67,0.34,0.34,0,0,0,0-.16,39.76,39.76,0,0,0,1.25-9.12,35.07,35.07,0,0,0-.23-4.58C330.31,318.48,330.3,318.12,329.66,318.49Zm-53.44,1.11a8.19,8.19,0,1,1,8.21-8.15A8.19,8.19,0,0,1,276.21,319.6ZM284,352.41a4.17,4.17,0,0,1,0-8.34A4.17,4.17,0,1,1,284,352.41Zm9.95-20.54a4.21,4.21,0,0,1-4.12-4.2,4.17,4.17,0,1,1,8.34,0A4.23,4.23,0,0,1,293.94,331.87Zm9.17,7.59a5.8,5.8,0,0,1,5.9-5.8A5.88,5.88,0,1,1,303.12,339.46Z" transform="translate(-129.8 -170.48)"/><path class="cls-2" d="M315.09,287.54a5.35,5.35,0,1,0-5.32-5.37A5.32,5.32,0,0,0,315.09,287.54Z" transform="translate(-129.8 -170.48)"/><path class="cls-2" d="M326.8,302.87a5.34,5.34,0,0,0-5.23,5.37,5.25,5.25,0,0,0,5.35,5.34,5.36,5.36,0,0,0,5.32-5.41A5.44,5.44,0,0,0,326.8,302.87Z" transform="translate(-129.8 -170.48)"/><rect class="cls-1" x="277.17" y="0.58" width="44.91" height="189.66"/><path class="cls-3" d="M414.55,186.9h6l1.85,19.51c0.15,2.83.36,5.61,0.51,8.44h0.15c0.57-2.83,1.34-5.66,2-8.44L428,195.5h3.81l2.88,10.92c0.57,2.73,1.34,5.56,1.9,8.44h0.21c0.15-2.88.36-5.71,0.51-8.44l1.75-19.51h5.66l-4.58,33.67H433.8l-3-12.31c-0.46-2.11-.82-4.27-1.08-6.28h-0.15c-0.31,2-.67,4.17-1.13,6.28l-2.83,12.31h-6.23Z" transform="translate(-129.8 -170.48)"/><path class="cls-3" d="M419.54,248.69h21.52v5H425.51v8.6H438.7v5H425.51v9.94h16.06v5h-22V248.69Z" transform="translate(-129.8 -170.48)"/><path class="cls-3" d="M432.88,309.86a13.45,13.45,0,0,1,9.58,4.22l-3.35,3.71a8.46,8.46,0,0,0-6.23-2.73c-5.61,0-9.47,4.63-9.47,12.2s3.86,12.31,9.63,12.31a8.79,8.79,0,0,0,6.74-3.35l3.3,3.66a13.31,13.31,0,0,1-10.4,4.89c-8.6,0-15.4-6.18-15.4-17.35C417.28,316.4,424,309.86,432.88,309.86Z" transform="translate(-129.8 -170.48)"/></svg>